<svg xmlns="http://www.w3.org/2000/svg" viewBox="0 0 94.17 17.33"><defs><style>.cls-1{fill:#fff;}</style></defs><g id="Capa_2" data-name="Capa 2"><g id="logo-4"><path class="cls-1" d="M90.45,17.33a3.73,3.73,0,1,0-3.73-3.73A3.73,3.73,0,0,0,90.45,17.33Z"/><path class="cls-1" d="M17.19,9.87a3.65,3.65,0,0,1,1.06,2.59,3.86,3.86,0,0,1-1.84,3.44,9.6,9.6,0,0,1-5.29,1.22H0V.11H10.82a9.84,9.84,0,0,1,5.1,1.13,3.62,3.62,0,0,1,1.86,3.29A3.5,3.5,0,0,1,16.8,7,4.87,4.87,0,0,1,14.21,8.4,5.36,5.36,0,0,1,17.19,9.87ZM6.65,6.49H9.23a2.39,2.39,0,0,0,1.34-.3A1,1,0,0,0,11,5.28a1.07,1.07,0,0,0-.43-.94A2.31,2.31,0,0,0,9.23,4H6.65Zm4.37,6a1,1,0,0,0,.43-.93c0-.83-.59-1.25-1.77-1.25h-3v2.46h3A2.6,2.6,0,0,0,11,12.46Z"/><path class="cls-1" d="M20.52,4A7,7,0,0,1,23,1a6.4,6.4,0,0,1,3.57-1,5.83,5.83,0,0,1,2.85.67,4.69,4.69,0,0,1,1.82,1.85V.21h6.63V17.12H31.26V14.81a4.6,4.6,0,0,1-1.82,1.84,5.72,5.72,0,0,1-2.85.68,6.41,6.41,0,0,1-3.57-1,7,7,0,0,1-2.5-3,10.83,10.83,0,0,1-.92-4.63A10.9,10.9,0,0,1,20.52,4ZM30.58,6.57a2.46,2.46,0,0,0-3.54,0,2.94,2.94,0,0,0-.69,2.09,3,3,0,0,0,.69,2.1,2.46,2.46,0,0,0,3.54,0,3,3,0,0,0,.68-2.1A3,3,0,0,0,30.58,6.57Z"/><path class="cls-1" d="M44.17,16.55a7.08,7.08,0,0,1-2.92-2.16A5.76,5.76,0,0,1,40,11.27H46.4a1.58,1.58,0,0,0,.65,1.11,2.29,2.29,0,0,0,1.33.36,1.32,1.32,0,0,0,.81-.22.68.68,0,0,0,.3-.56.84.84,0,0,0-.63-.81,14.94,14.94,0,0,0-2.13-.54,21.8,21.8,0,0,1-3-.78,4.87,4.87,0,0,1-2.07-1.44,4.13,4.13,0,0,1-.88-2.81,5.12,5.12,0,0,1,.82-2.84A5.44,5.44,0,0,1,44,.74,9.47,9.47,0,0,1,48,0a7.89,7.89,0,0,1,5.35,1.68,6.89,6.89,0,0,1,2.32,4.38h-5.9A1.79,1.79,0,0,0,49.1,5a2,2,0,0,0-1.29-.37,1.32,1.32,0,0,0-.78.19.68.68,0,0,0-.27.59c0,.34.21.59.63.76a11.87,11.87,0,0,0,2,.53,20.72,20.72,0,0,1,3.09.8A5.11,5.11,0,0,1,54.68,9a4.55,4.55,0,0,1,.92,3,4.49,4.49,0,0,1-.87,2.7,5.75,5.75,0,0,1-2.5,1.89,9.76,9.76,0,0,1-3.82.69A10.8,10.8,0,0,1,44.17,16.55Z"/><path class="cls-1" d="M64.9.21V17.12H58.24V.21Z"/><path class="cls-1" d="M68.09,4.06a7.45,7.45,0,0,1,3.06-3,9.32,9.32,0,0,1,4.48-1,8.49,8.49,0,0,1,5.56,1.86A8.34,8.34,0,0,1,84.05,7H77A1.55,1.55,0,0,0,75.48,5.7a1.45,1.45,0,0,0-1.28.74,4.3,4.3,0,0,0-.46,2.22,4.27,4.27,0,0,0,.46,2.22,1.44,1.44,0,0,0,1.28.75A1.55,1.55,0,0,0,77,10.31h7a8.34,8.34,0,0,1-2.86,5.16,8.49,8.49,0,0,1-5.56,1.86,9.32,9.32,0,0,1-4.48-1,7.48,7.48,0,0,1-3.06-3A9.26,9.26,0,0,1,67,8.66,9.32,9.32,0,0,1,68.09,4.06Z"/></g></g></svg>